<?xml version="1.0" encoding="UTF-8"?>
<svg id="Layer_1" data-name="Layer 1" xmlns="http://www.w3.org/2000/svg" viewBox="0 0 378.18 378.18" opacity="0.2">
  <defs>
    <style>
      .cls-1 {
        fill: #390;
      }
    </style>
  </defs>
  <g>
    <path id="a" class="cls-1" d="m188.72,20.09l80.81,80.81-80.81,80.81-80.81-80.81L188.72,20.09Z"/>
    <path id="b" class="cls-1" d="m207.74,59.32c0,32.35-26.22,58.57-58.57,58.57s-58.57-26.22-58.57-58.57S116.82.75,149.17.75s58.57,26.22,58.57,58.57Z"/>
    <path id="c" class="cls-1" d="m287.59,58.57c0,32.35-26.22,58.57-58.57,58.57s-58.57-26.22-58.57-58.57S196.67,0,229.02,0s58.57,26.22,58.57,58.57Z"/>
  </g>
  <g>
    <path id="a-2" data-name="a" class="cls-1" d="m188.72,358.1l80.81-80.81-80.81-80.81-80.81,80.81,80.81,80.81Z"/>
    <path id="b-2" data-name="b" class="cls-1" d="m207.74,318.86c0-32.35-26.22-58.57-58.57-58.57s-58.57,26.22-58.57,58.57,26.22,58.57,58.57,58.57,58.57-26.22,58.57-58.57Z"/>
    <path id="c-2" data-name="c" class="cls-1" d="m287.59,319.61c0-32.35-26.22-58.57-58.57-58.57s-58.57,26.22-58.57,58.57,26.22,58.57,58.57,58.57,58.57-26.22,58.57-58.57Z"/>
  </g>
  <g>
    <path id="a-3" data-name="a" class="cls-1" d="m358.1,188.72l-80.81,80.81-80.81-80.81,80.81-80.81,80.81,80.81Z"/>
    <path id="b-3" data-name="b" class="cls-1" d="m318.86,207.74c-32.35,0-58.57-26.22-58.57-58.57s26.22-58.57,58.57-58.57,58.57,26.22,58.57,58.57-26.22,58.57-58.57,58.57Z"/>
    <path id="c-3" data-name="c" class="cls-1" d="m319.61,287.59c-32.35,0-58.57-26.22-58.57-58.57s26.22-58.57,58.57-58.57,58.57,26.22,58.57,58.57-26.22,58.57-58.57,58.57Z"/>
  </g>
  <g>
    <path id="a-4" data-name="a" class="cls-1" d="m20.09,188.72l80.81,80.81,80.81-80.81-80.81-80.81L20.09,188.72Z"/>
    <path id="b-4" data-name="b" class="cls-1" d="m59.32,207.74c32.35,0,58.57-26.22,58.57-58.57s-26.22-58.57-58.57-58.57S.75,116.82.75,149.17s26.22,58.57,58.57,58.57Z"/>
    <path id="c-4" data-name="c" class="cls-1" d="m58.57,287.59c32.35,0,58.57-26.22,58.57-58.57s-26.22-58.57-58.57-58.57S0,196.67,0,229.02s26.22,58.57,58.57,58.57Z"/>
  </g>
</svg>